<svg width="578" height="870" viewBox="0 0 578 870" fill="none" xmlns="http://www.w3.org/2000/svg">
<path d="M111.205 866.784C111.545 865.444 117.465 836.754 124.375 803.034C131.285 769.304 140.305 725.284 144.425 705.204C152.885 663.994 176.615 547.044 183.275 513.704C185.695 501.604 190.685 476.624 194.375 458.204C204.145 409.424 207.675 390.754 207.225 390.294C206.785 389.844 199.265 405.314 171.545 463.704C161.355 485.154 143.365 522.504 131.555 546.704C119.745 570.904 96.7153 618.154 80.3753 651.704C28.5553 758.124 2.52534 810.204 1.14534 810.204C-0.684657 810.204 -0.684665 810.154 3.85533 787.164C12.6253 742.724 19.7053 693.384 23.2953 651.704C27.0453 608.214 27.7453 531.284 24.8553 478.704C24.2853 468.254 23.3453 450.924 22.7653 440.204C21.6053 418.704 17.6953 358.974 15.1953 324.704C14.3153 312.604 13.5653 291.904 13.5253 278.704C13.4453 251.794 15.2353 236.744 20.9053 216.544C38.6453 153.354 85.2053 107.354 155.305 83.7337C162.465 81.3237 175.515 77.0337 184.315 74.1837C222.225 61.9437 244.925 49.0337 266.925 27.2337C274.235 19.9837 284.565 7.2037 288.365 0.683704C289.285 -0.886296 290.135 -0.106303 294.995 6.7937C306.745 23.4637 319.225 35.7937 335.815 47.1037C353.805 59.3637 368.405 65.7537 406.775 78.1737C420.515 82.6137 437.055 88.5137 443.535 91.2837C519.315 123.674 561.835 184.934 565.465 266.964C566.085 281.214 565.135 303.464 561.795 352.204C554.495 458.634 552.755 494.304 552.115 550.224C551.095 638.854 556.045 693.804 572.915 780.994C577.635 805.424 578.245 811.204 575.915 809.764C574.575 808.934 495.065 647.804 468.565 592.204C455.965 565.774 450.685 554.804 436.005 524.574C427.235 506.494 412.615 476.174 403.525 457.204C373.795 395.164 370.715 389.134 371.415 394.204C372.535 402.424 403.405 555.304 424.815 658.704C430.575 686.534 441.775 741.284 455.825 810.304C461.265 837.044 466.245 861.024 466.895 863.594C467.545 866.174 467.865 868.484 467.615 868.734C467.195 869.154 430.255 856.814 330.815 823.054C309.645 815.864 291.415 809.784 290.315 809.544C289.215 809.294 272.335 814.564 252.815 821.244C198.685 839.754 111.685 869.204 111.105 869.204C110.825 869.204 110.875 868.114 111.205 866.784Z" fill="#CCFF44"/>
</svg>
